{"title":"Zombiefied (2012)","uid":8096948,"size":2260861681,"categoryP":"video","categoryS":"movies","magnet":"?xt=urn:btih:6f5c0c7357f7c9615abd472cf0c248cab9fb40ca&amp;dn=Zombiefied+%282012%29&amp;tr=udp%3A%2F%2Ftracker.openbittorrent.com%3A80&amp;tr=udp%3A%2F%2Fopen.demonii.com%3A1337&amp;tr=udp%3A%2F%2Ftracker.coppersurfer.tk%3A6969&amp;tr=udp%3A%2F%2Fexodus.desync.com%3A6969","seeders":1,"leechers":0,"uploader":"RadioResearch","files":3,"time":1359862929,"description":"*******************************************************************************\n                               Zombiefied (2012)\n*******************************************************************************\n\n-------------------------------------------------------------------------------\n                              General Information\n-------------------------------------------------------------------------------\nType.................: Movie\n\n\n\nVideo Format.........: AVI\nVideo Bitrate........: 2844\nResolution...........: 720 x 404\nColor................: 8 bit\nFPS..................: 29.97\nSource...............: DVD 16x9\nOriginal Format......: NTSC\nGenre................: Horror\nIMDb Rating..........: 6.4\nMovie Information....: http://www.imdb.com/title/tt1356415\n\n-------------------------------------------------------------------------------\n                               Post Information\n-------------------------------------------------------------------------------\nPosted by............: RadioResearch\nPosted on............: 2/2/2013\n\n-------------------------------------------------------------------------------\n                                 Release Notes\n-------------------------------------------------------------------------------\nFriends Tommy and Angel have kept a deadly secret that has tormented them for 13 \nyears. At a major concert for two popular bands, the fans inside the club \nstrangely become rageful, vicious zombies. An outbreak occurs, leaving lead \nsinger Alana running for her life and getting separated from her bandmates. Now \nTommy and Angel must re-live their worst fears as their nightmares become \nreality and the zombie outbreak is spreading. During Alana's escape, she is \nattacked by a twisted serial killer who knows the secret and the bodies are \nadding up.\n\nEnjoy!\n\nRadioResearch\n\nGeneral\nComplete name                            : G:AVIZombiefied \n(2012)New_Title1.avi\nFormat                                   : AVI\nFormat/Info                              : Audio Video Interleave\nFormat profile                           : OpenDML\nFile size                                : 2.11 GiB\nDuration                                 : 1h 46mn\nOverall bit rate                         : 2 844 Kbps\nMovie name                               : New\nGenre                                    : Horror\nWriting application                      : MEncoder 5.0\nWriting library                          : [= DigiArty videodll! =]\n\nVideo\nID                                       : 0\nFormat                                   : MPEG-4 Visual\nFormat profile                           : Simple@L1\nFormat settings, BVOP                    : No\nFormat settings, QPel                    : No\nFormat settings, GMC                     : No warppoints\nFormat settings, Matrix                  : Default (H.263)\nCodec ID                                 : DX50\nCodec ID/Hint                            : DivX 5\nDuration                                 : 1h 46mn\nBit rate                                 : 2 582 Kbps\nWidth                                    : 720 pixels\nHeight                                   : 404 pixels\nDisplay aspect ratio                     : 16:9\nFrame rate                               : 29.970 fps\nColor space                              : YUV\nChroma subsampling                       : 4:2:0\nBit depth                                : 8 bits\nScan type                                : Progressive\nCompression mode                         : Lossy\nBits/(Pixel*Frame)                       : 0.296\nStream size                              : 1.91 GiB (91%)\nWriting library                          : Lavc54.71.100\n\nAudio\nID                                       : 1\nFormat                                   : MPEG Audio\nFormat version                           : Version 1\nFormat profile                           : Layer 2\nCodec ID                                 : 50\nDuration                                 : 1h 46mn\nBit rate mode                            : Constant\nBit rate                                 : 256 Kbps\nChannel(s)                               : 2 channels\nSampling rate                            : 48.0 KHz\nCompression mode                         : Lossy\nStream size                              : 194 MiB (9%)\nAlignment                                : Split accross interleaves\nInterleave, duration                     : 500 ms (14.98 video frames)\nInterleave, preload duration             : 500 ms\n\n\n\n-------------------------------------------------------------------------------\nGenerated with Cool NFO Creator - http://fly.to/coolbeans\n-------------------------------------------------------------------------------\n","torrent":{"xt":"urn:btih:6f5c0c7357f7c9615abd472cf0c248cab9fb40ca","amp;dn":"Zombiefied+%282012%29","amp;tr":["udp%3A%2F%2Ftracker.openbittorrent.com%3A80","udp%3A%2F%2Fopen.demonii.com%3A1337","udp%3A%2F%2Ftracker.coppersurfer.tk%3A6969","udp%3A%2F%2Fexodus.desync.com%3A6969"],"infoHash":"6f5c0c7357f7c9615abd472cf0c248cab9fb40ca","infoHashBuffer":{"type":"Buffer","data":[111,92,12,115,87,247,201,97,90,189,71,44,240,194,72,202,185,251,64,202]},"announce":[],"urlList":[]}}